<svg xmlns="http://www.w3.org/2000/svg" xmlns:xlink="http://www.w3.org/1999/xlink" width="500" zoomAndPan="magnify" viewBox="0 0 375 374.999991" height="500" preserveAspectRatio="xMidYMid meet" version="1.0"><defs><g/><clipPath id="b738d7cebd"><path d="M 0 19.285156 L 375 19.285156 L 375 356 L 0 356 Z M 0 19.285156 " clip-rule="nonzero"/></clipPath></defs><g clip-path="url(#b738d7cebd)"><path fill="#ff3131" d="M 347.824219 187.242188 C 349.175781 186.28125 350.128906 185.25 350.621094 184.199219 C 351.289062 184.238281 352 184.246094 352.746094 184.214844 C 353.746094 184.316406 354.90625 184.355469 355.636719 184.554688 C 356.492188 184.792969 357.375 185.023438 358.285156 185.234375 C 354.804688 185.921875 351.320312 186.585938 347.824219 187.242188 Z M 380.21875 204.234375 L 380.460938 204.382812 L 378.121094 209.039062 Z M 373.074219 237.546875 C 373.082031 237.535156 373.085938 237.519531 373.097656 237.503906 C 373.117188 237.5 373.136719 237.5 373.152344 237.492188 C 373.125 237.511719 373.101562 237.53125 373.074219 237.546875 Z M 385.339844 239.613281 C 385.117188 239.703125 384.890625 239.800781 384.664062 239.890625 C 384.421875 239.886719 384.1875 239.882812 383.945312 239.878906 C 383.550781 240.128906 383.074219 240.359375 382.550781 240.578125 C 380.902344 240.640625 379.257812 240.703125 377.625 240.742188 C 375.9375 240.8125 374.265625 240.746094 372.609375 240.6875 C 372.660156 240.558594 372.6875 240.433594 372.703125 240.304688 C 372.746094 239.824219 372.519531 239.378906 372.078125 238.984375 C 372.382812 238.628906 372.644531 238.269531 372.863281 237.910156 C 372.894531 238.175781 373.304688 238.386719 374.003906 238.4375 C 377.417969 238.789062 380.734375 239.136719 384.023438 239.476562 C 384.289062 239.351562 384.554688 239.226562 384.820312 239.101562 C 384.722656 239.246094 384.582031 239.386719 384.425781 239.519531 C 384.730469 239.550781 385.03125 239.582031 385.339844 239.613281 Z M 392.117188 275.152344 C 392.125 275.148438 392.125 275.148438 392.132812 275.148438 C 392.507812 275.328125 392.960938 275.542969 393.542969 275.816406 C 393.542969 275.816406 392.945312 275.539062 392.117188 275.152344 Z M 352.125 304.539062 C 351.492188 304.535156 350.871094 304.527344 350.25 304.523438 C 349.320312 304.273438 348.386719 304.019531 347.449219 303.769531 C 347.570312 303.753906 347.699219 303.742188 347.828125 303.730469 C 349.007812 303.6875 350.195312 303.644531 351.375 303.601562 C 351.152344 303.527344 350.921875 303.457031 350.691406 303.378906 C 355.214844 302.832031 359.722656 302.304688 364.222656 301.832031 C 368.542969 301.769531 373.058594 301.523438 377.644531 301.070312 C 380.019531 300.765625 382.417969 300.410156 384.816406 299.996094 C 382.871094 300.886719 381.03125 301.820312 379.328125 302.757812 C 375.328125 303.042969 371.378906 303.101562 367.417969 303.296875 C 362.402344 303.511719 357.359375 303.828125 352.125 304.539062 Z M 23.382812 256.101562 C 22.425781 255.527344 21.449219 254.96875 20.394531 254.433594 C 21.570312 254.214844 22.742188 254.003906 23.921875 253.792969 C 26.285156 254.03125 28.667969 254.324219 30.972656 254.488281 C 33.601562 254.710938 36.207031 254.933594 38.796875 255.15625 C 41.386719 255.363281 43.96875 255.601562 46.5625 255.691406 C 45.957031 255.757812 45.355469 255.828125 44.742188 255.898438 C 44.152344 256.003906 42.988281 255.945312 43.628906 256.539062 C 38.789062 256.257812 33.882812 256.082031 28.851562 255.996094 C 26.988281 255.902344 25.144531 255.9375 23.382812 256.101562 Z M 6.578125 265.066406 C 6.226562 264.789062 5.800781 264.457031 5.25 264.023438 C 5.25 264.023438 5.820312 264.464844 6.59375 265.066406 C 6.585938 265.066406 6.585938 265.066406 6.578125 265.066406 Z M -10.855469 282.359375 L -11.089844 282.15625 L -7.832031 278.15625 Z M -13.855469 255.488281 C -13.855469 255.488281 -13.859375 255.484375 -14.757812 254.90625 C -14.460938 255.042969 -14.230469 255.210938 -13.855469 255.488281 Z M 26.707031 228.769531 C 29.570312 229.199219 32.828125 229.394531 36.304688 229.3125 C 29.667969 230.21875 23.003906 231.128906 16.316406 232.039062 C 15.925781 231.933594 15.539062 231.816406 15.140625 231.707031 C 13.492188 231.207031 11.785156 230.726562 10.03125 230.273438 C 10.164062 230.238281 10.296875 230.203125 10.429688 230.164062 C 15.851562 229.683594 21.277344 229.21875 26.707031 228.769531 Z M -17.25 201.785156 L -17.519531 201.636719 L -14.804688 196.964844 Z M -25.773438 175.675781 C -25.425781 175.730469 -25.152344 175.847656 -24.695312 176.03125 C -24.695312 176.03125 -24.699219 176.03125 -25.773438 175.675781 Z M -25.488281 139.128906 L -25.75 138.980469 L -23.128906 134.335938 Z M -33.894531 112.96875 C -33.554688 113.03125 -33.285156 113.144531 -32.84375 113.335938 C -32.84375 113.335938 -32.847656 113.332031 -33.894531 112.96875 Z M 39.207031 78.128906 C 41.015625 78.058594 42.832031 77.984375 44.65625 77.914062 C 44.65625 77.917969 44.65625 77.921875 44.660156 77.929688 C 45.257812 78.820312 46.484375 79.59375 48.132812 80.210938 C 45.191406 80.386719 42.253906 80.566406 39.320312 80.746094 C 36.394531 80.992188 33.46875 81.230469 30.542969 81.472656 C 24.691406 81.976562 18.847656 82.46875 12.996094 83.027344 C 8.113281 83.308594 3.234375 83.585938 -1.644531 83.871094 L -4.097656 84.011719 C -5.351562 83.871094 -6.636719 83.75 -7.949219 83.644531 C 7.878906 81.816406 23.609375 79.976562 39.207031 78.128906 Z M 362.898438 69.515625 C 363.28125 69.761719 363.738281 70.054688 364.328125 70.429688 C 364.328125 70.429688 363.71875 70.046875 362.882812 69.515625 C 362.894531 69.515625 362.894531 69.515625 362.898438 69.515625 Z M 379.425781 50.496094 L 379.679688 50.671875 L 376.695312 55.03125 Z M 353.136719 82.578125 C 348.457031 82.128906 343.125 82.125 338.210938 81.910156 C 335.664062 81.816406 333.140625 81.742188 330.625 81.679688 C 331.96875 81.519531 333.316406 81.359375 334.660156 81.199219 C 338.464844 80.769531 342.253906 80.296875 346.035156 79.8125 C 348.128906 80.835938 350.332031 81.824219 353.136719 82.578125 Z M 384.691406 76.933594 C 384.691406 76.933594 384.695312 76.933594 385.683594 77.425781 C 385.355469 77.328125 385.105469 77.175781 384.691406 76.933594 Z M 371.851562 82.585938 C 370.878906 82.429688 369.699219 82.589844 369.195312 82.949219 C 369.023438 83.09375 368.996094 83.246094 369.089844 83.386719 C 366.367188 83.753906 363.648438 84.117188 360.9375 84.484375 C 360.90625 84.351562 360.832031 84.230469 360.636719 84.15625 C 360.324219 84.039062 360.007812 83.941406 359.675781 83.835938 C 360.699219 83.949219 361.785156 84.039062 362.957031 84.097656 C 367.316406 83 368.972656 82.5625 370.105469 82.3125 C 370.109375 82.316406 370.121094 82.320312 370.125 82.320312 C 370.125 82.320312 370.132812 82.320312 370.464844 82.230469 C 370.992188 82.109375 371.453125 82 372.117188 81.847656 C 372.117188 81.847656 372.113281 81.820312 372.113281 81.785156 C 372.246094 81.75 372.382812 81.714844 372.53125 81.671875 C 373.183594 81.714844 373.839844 81.75 374.5 81.789062 C 375.242188 81.84375 375.953125 81.710938 376.3125 81.492188 C 376.574219 81.660156 376.847656 81.824219 377.199219 81.996094 C 377.78125 82.042969 378.269531 82.078125 378.699219 82.113281 C 376.984375 82.339844 375.269531 82.566406 373.554688 82.792969 C 372.984375 82.726562 372.414062 82.660156 371.851562 82.585938 Z M 381.417969 85.707031 C 381.300781 85.835938 381.152344 85.953125 380.992188 86.0625 C 381.304688 86.128906 381.617188 86.195312 381.933594 86.265625 C 381.683594 86.335938 381.4375 86.40625 381.1875 86.476562 C 380.9375 86.441406 380.691406 86.40625 380.445312 86.378906 C 380.015625 86.582031 379.5 86.757812 378.941406 86.910156 C 377.234375 86.777344 375.519531 86.640625 373.820312 86.503906 C 371.839844 86.316406 369.867188 86.136719 367.914062 85.945312 C 370.183594 85.550781 372.441406 85.152344 374.691406 84.746094 C 376.675781 85.148438 378.640625 85.554688 380.589844 85.976562 C 380.867188 85.882812 381.140625 85.796875 381.417969 85.707031 Z M 388.558594 132.164062 L 387.441406 134.101562 C 387.371094 134.113281 387.296875 134.125 387.226562 134.140625 L 388.296875 132.015625 Z M 353.871094 176.191406 C 356.480469 176.203125 359.113281 176.164062 361.757812 176.078125 C 359.015625 176.617188 356.273438 177.15625 353.53125 177.699219 C 353.136719 177.78125 352.746094 177.847656 352.351562 177.925781 C 350.085938 177.808594 347.828125 177.675781 345.582031 177.53125 C 345.511719 177.507812 345.445312 177.484375 345.375 177.457031 C 344.449219 177.132812 343.417969 176.816406 342.320312 176.566406 C 341.21875 176.308594 340.042969 176.09375 338.804688 175.933594 C 339.632812 175.847656 340.460938 175.757812 341.285156 175.671875 C 345.355469 176.039062 349.574219 176.152344 353.871094 176.191406 Z M 357.886719 291.996094 C 358.433594 291.824219 359.535156 291.691406 358.859375 291.203125 C 363.453125 290.671875 368.101562 290.035156 372.859375 289.28125 C 374.632812 289.011719 376.359375 288.597656 377.996094 288.015625 C 380.015625 288.726562 382.144531 289.378906 384.808594 289.707031 C 380.46875 289.960938 375.59375 290.804688 371.058594 291.125 C 366.035156 291.542969 361.105469 291.980469 356.199219 292.460938 C 356.757812 292.304688 357.316406 292.15625 357.886719 291.996094 Z M 46.5 228.714844 C 47.746094 228.523438 48.988281 228.355469 50.234375 228.179688 C 58.515625 227.46875 66.75 226.796875 74.980469 226.132812 C 75.601562 226.699219 76.46875 227.199219 77.535156 227.613281 C 72.160156 228.066406 66.804688 228.519531 61.449219 228.976562 L 53.425781 229.710938 C 50.757812 230.039062 48.089844 230.359375 45.421875 230.683594 C 36.503906 231.285156 27.5625 231.691406 18.667969 232.710938 C 18.644531 232.71875 18.625 232.722656 18.597656 232.726562 C 18.449219 232.675781 18.304688 232.628906 18.15625 232.582031 C 19.933594 232.328125 21.71875 232.085938 23.5 231.820312 C 27.332031 231.191406 31.183594 230.769531 35.015625 230.269531 C 38.851562 229.777344 42.679688 229.257812 46.5 228.714844 Z M -21.917969 166.914062 C -21.808594 166.773438 -21.664062 166.640625 -21.496094 166.511719 C -21.835938 166.480469 -22.171875 166.449219 -22.511719 166.414062 C -22.253906 166.320312 -22 166.21875 -21.734375 166.121094 C -21.46875 166.128906 -21.207031 166.128906 -20.941406 166.132812 C -20.5 165.878906 -19.964844 165.648438 -19.378906 165.425781 C -17.554688 165.355469 -15.726562 165.289062 -13.917969 165.238281 C -9.269531 165.125 -4.699219 165.226562 -0.308594 165.496094 C -0.0703125 165.515625 -0.222656 165.835938 -0.164062 166.113281 C -3.335938 166.28125 -6.511719 166.449219 -9.6875 166.617188 C -12.007812 166.671875 -14.328125 166.730469 -16.652344 166.789062 C -17.078125 166.796875 -17.503906 166.8125 -17.9375 166.828125 C -18.980469 166.734375 -20.023438 166.644531 -21.066406 166.546875 C -21.351562 166.671875 -21.632812 166.792969 -21.917969 166.914062 Z M 352.777344 102.9375 C 353.601562 103.121094 354.433594 103.296875 355.277344 103.46875 C 353.542969 103.523438 351.804688 103.578125 350.070312 103.636719 C 350.96875 103.402344 351.875 103.171875 352.777344 102.9375 Z M 23.972656 234.664062 C 23.550781 234.492188 23.128906 234.320312 22.699219 234.15625 L 25.332031 233.902344 C 24.816406 234.140625 24.363281 234.398438 23.972656 234.664062 Z M 71.09375 240.835938 C 71.105469 240.851562 71.125 240.871094 71.136719 240.898438 C 70.992188 240.878906 70.863281 240.855469 70.726562 240.835938 C 70.847656 240.839844 70.96875 240.835938 71.09375 240.835938 Z M 37.585938 168.253906 C 37.617188 168.277344 37.640625 168.300781 37.675781 168.328125 C 37.488281 168.332031 37.296875 168.339844 37.109375 168.34375 C 37.269531 168.3125 37.429688 168.28125 37.585938 168.253906 Z M 30.472656 168.570312 C 31.601562 168.4375 32.738281 168.304688 33.867188 168.167969 C 33.21875 168.289062 32.566406 168.398438 31.921875 168.511719 C 31.433594 168.535156 30.953125 168.550781 30.472656 168.570312 Z M -10.242188 118.582031 C -10.644531 118.367188 -11.125 118.117188 -11.734375 117.785156 C -11.734375 117.785156 -11.097656 118.121094 -10.222656 118.582031 C -10.238281 118.582031 -10.238281 118.582031 -10.242188 118.582031 Z M 40.902344 93.984375 C 39.601562 93.921875 38.292969 93.863281 36.984375 93.800781 C 37.230469 93.894531 37.476562 93.984375 37.726562 94.082031 C 32.699219 94.226562 27.6875 94.355469 22.703125 94.429688 C 17.9375 94.117188 12.953125 93.9375 7.871094 94.019531 C 5.226562 94.109375 2.5625 94.257812 -0.113281 94.453125 C 2.039062 93.757812 4.082031 93.019531 5.980469 92.257812 C 8.261719 92.339844 10.542969 92.425781 12.820312 92.511719 C 15.714844 92.648438 18.613281 92.792969 21.546875 92.933594 C 27.3125 93.191406 33.179688 93.359375 39.324219 93.316406 C 39.988281 93.539062 40.65625 93.757812 41.324219 93.976562 C 41.183594 93.976562 41.042969 93.980469 40.902344 93.984375 Z M 108.339844 239.144531 C 107.910156 239.136719 107.480469 239.128906 107.019531 239.140625 C 106.238281 239.078125 105.4375 239.042969 104.644531 239 C 105.113281 238.957031 105.582031 238.914062 106.050781 238.875 C 107.535156 238.753906 109.003906 238.632812 110.480469 238.507812 C 109.765625 238.71875 109.050781 238.933594 108.339844 239.144531 Z M 14.304688 104.503906 C 19.867188 104.535156 25.339844 104.53125 30.789062 104.484375 C 30.152344 104.589844 29.527344 104.691406 28.886719 104.796875 C 28.269531 104.925781 27.046875 104.957031 27.746094 105.503906 C 22.648438 105.625 17.46875 105.851562 12.167969 106.191406 C 10.191406 106.292969 8.253906 106.585938 6.410156 107.011719 C 4.238281 106.117188 1.949219 105.277344 -0.953125 104.710938 C 3.84375 104.867188 9.285156 104.421875 14.304688 104.503906 Z M -28.699219 103.492188 C -28.878906 103.488281 -29.054688 103.484375 -29.230469 103.480469 C -29.304688 103.523438 -29.371094 103.566406 -29.4375 103.613281 C -29.78125 103.664062 -30.125 103.722656 -30.46875 103.777344 C -30.566406 103.769531 -30.660156 103.757812 -30.757812 103.75 C -30.507812 103.652344 -30.261719 103.554688 -30.007812 103.460938 C -29.746094 103.464844 -29.492188 103.476562 -29.230469 103.480469 C -28.804688 103.230469 -28.28125 103 -27.707031 102.78125 C -26.34375 102.742188 -24.980469 102.707031 -23.625 102.675781 C -25.316406 102.953125 -27.011719 103.222656 -28.699219 103.492188 Z M 312.546875 97.960938 C 315.683594 98.523438 319.03125 98.949219 322.542969 99.253906 C 319.84375 99.636719 317.144531 100.015625 314.457031 100.417969 C 312.636719 100.558594 310.816406 100.703125 308.988281 100.84375 C 308.988281 100.839844 308.988281 100.832031 308.984375 100.828125 C 308.363281 99.960938 307.121094 99.238281 305.453125 98.6875 C 307.820312 98.453125 310.183594 98.203125 312.546875 97.960938 Z M 396.542969 158.222656 C 396.195312 158.164062 395.921875 158.042969 395.480469 157.847656 C 395.480469 157.847656 395.484375 157.851562 396.542969 158.222656 Z M 39.40625 245.097656 C 32.683594 244.097656 25.546875 243.292969 18.367188 242.753906 C 19.25 242.578125 20.113281 242.394531 20.953125 242.199219 C 22.386719 241.964844 23.816406 241.730469 25.246094 241.5 C 26.394531 241.683594 27.539062 241.871094 28.679688 242.058594 C 31.238281 242.40625 33.785156 242.746094 36.339844 243.089844 C 38.898438 243.417969 41.46875 243.742188 44.089844 243.96875 C 46.699219 244.144531 49.34375 244.269531 52.054688 244.308594 C 51.6875 244.359375 51.3125 244.40625 50.941406 244.457031 C 48.703125 244.769531 46.464844 245.074219 44.230469 245.378906 C 42.617188 245.3125 41.003906 245.230469 39.40625 245.097656 Z M 387.199219 230.003906 C 387.199219 230.003906 387.203125 230.003906 388.171875 230.367188 C 387.859375 230.3125 387.609375 230.191406 387.199219 230.003906 Z M 404.28125 253.460938 L 404.53125 253.589844 L 402.53125 258.425781 Z M 413.890625 278.820312 C 413.582031 278.789062 413.328125 278.695312 412.914062 278.535156 C 412.914062 278.535156 412.917969 278.539062 413.890625 278.820312 Z M 436.523438 150.203125 C 426.015625 151.398438 415.542969 152.65625 405.105469 153.96875 C 404.925781 153.898438 403.367188 153.296875 400.96875 152.984375 C 398.042969 153.019531 398.042969 153.019531 394.660156 153.066406 C 394.660156 153.066406 393.925781 153.035156 392.652344 153.019531 C 391.675781 152.621094 391.457031 152.515625 390.730469 152.140625 C 390.730469 152.140625 390.726562 152.140625 390.710938 152.136719 C 391.351562 152.035156 391.96875 151.878906 392.476562 151.675781 C 393.953125 151.082031 394.097656 150.3125 392.792969 149.9375 C 393.398438 149.042969 393.566406 148.226562 393.410156 147.464844 C 395.144531 147.128906 396.878906 146.792969 398.597656 146.445312 C 401.253906 145.890625 403.902344 145.339844 406.53125 144.792969 C 409.15625 144.207031 411.757812 143.558594 414.347656 142.917969 C 414.957031 142.769531 415.269531 142.519531 415.03125 142.335938 C 414.796875 142.15625 414.152344 142.121094 413.550781 142.269531 C 411.660156 142.574219 409.769531 142.875 407.875 143.179688 C 405.984375 143.457031 404.09375 143.738281 402.203125 144.019531 C 398.867188 144.515625 395.542969 145.015625 392.21875 145.511719 C 391.84375 145.144531 391.410156 144.792969 390.910156 144.449219 C 391.496094 143.710938 391.734375 142.964844 391.585938 142.246094 C 393.171875 140.871094 394.296875 139.488281 395.011719 138.105469 C 405.730469 136.25 416.425781 134.289062 427.136719 132.246094 C 430.296875 131.734375 432.5 130.46875 432.019531 129.449219 C 431.550781 128.414062 428.550781 127.984375 425.40625 128.496094 C 419.464844 129.207031 413.652344 130.027344 407.902344 130.917969 C 403.367188 131.597656 398.859375 132.265625 394.363281 132.980469 C 393.257812 132.261719 391.710938 131.664062 389.800781 131.222656 L 388.851562 130.910156 L 389.609375 129.398438 C 387.527344 127.722656 384.523438 126.339844 381.425781 124.988281 C 379.878906 124.308594 378.308594 123.640625 376.816406 122.949219 C 376.070312 122.601562 375.34375 122.257812 374.652344 121.882812 C 373.953125 121.496094 373.285156 121.105469 372.667969 120.695312 L 369.003906 119.054688 C 366.332031 117.707031 362.1875 116.882812 357.382812 116.691406 L 354.371094 116.585938 C 356.039062 116.28125 357.710938 115.984375 359.359375 115.664062 C 361.832031 115.191406 364.285156 114.601562 366.710938 114.039062 C 367.699219 113.808594 368.203125 113.4375 368.023438 113.097656 C 368.394531 113.152344 368.886719 113.132812 369.316406 113.003906 C 371.613281 112.210938 374.207031 111.628906 376.941406 111.078125 C 377.535156 110.902344 377.851562 110.667969 377.558594 110.507812 C 377.261719 110.300781 376.578125 110.265625 376.046875 110.410156 C 373.246094 110.992188 370.515625 111.636719 368.019531 112.429688 C 367.753906 112.519531 367.578125 112.644531 367.535156 112.765625 C 366.960938 112.585938 366.0625 112.5625 365.183594 112.730469 C 361.304688 113.25 357.449219 113.765625 353.605469 114.277344 C 354.765625 113.421875 355.585938 112.519531 356 111.605469 C 361.792969 110.574219 367.621094 109.570312 373.703125 108.683594 C 374.382812 108.625 374.820312 108.371094 374.738281 108.171875 C 374.640625 107.96875 374.070312 107.832031 373.402344 107.945312 C 367.558594 108.714844 361.886719 109.574219 356.292969 110.492188 C 356.332031 110.011719 356.261719 109.527344 356.054688 109.050781 C 355.984375 108.890625 355.902344 108.738281 355.808594 108.585938 L 360.246094 108.082031 L 364.964844 107.449219 C 368.105469 107.015625 371.242188 106.582031 374.378906 106.148438 C 380.644531 105.269531 386.890625 104.359375 393.113281 103.417969 C 394.335938 103.304688 395.296875 102.863281 395.238281 102.453125 C 395.210938 102.183594 394.753906 101.984375 394.109375 101.90625 C 398.824219 99.136719 396.773438 95.421875 389.050781 93.417969 L 387.902344 93.097656 C 390.816406 92.824219 393.460938 92.289062 395.488281 91.425781 C 402.394531 90.800781 409.320312 90.238281 416.265625 89.773438 C 416.871094 89.738281 417.378906 89.507812 417.347656 89.277344 C 417.320312 89.046875 416.75 88.914062 416.078125 88.976562 C 409.785156 89.398438 403.511719 89.917969 397.246094 90.476562 C 397.378906 90.382812 397.511719 90.289062 397.636719 90.191406 C 398.730469 89.300781 397.789062 88.140625 397.5625 87.085938 C 397.902344 85.566406 394.640625 84.191406 390.289062 84.023438 C 389.117188 83.980469 387.996094 84.03125 386.964844 84.15625 C 385.039062 83.929688 383.09375 83.738281 381.148438 83.554688 C 383.695312 83.070312 386.230469 82.574219 388.75 82.0625 C 389.429688 82.082031 390.238281 82.164062 392.589844 82.378906 C 392.589844 82.378906 392.589844 82.378906 390.863281 81.671875 C 390.863281 81.671875 390.863281 81.671875 392.375 82.167969 C 392.375 82.167969 392.375 82.164062 391.984375 81.390625 C 391.988281 81.390625 391.988281 81.390625 391.988281 81.390625 C 392.019531 81.421875 392.140625 81.578125 392.679688 82.238281 C 392.679688 82.238281 392.679688 82.238281 393.332031 81.609375 C 393.332031 81.609375 393.34375 81.613281 396.324219 83.5 C 396.5625 83.460938 397.117188 83.375 398.511719 83.152344 C 398.511719 83.152344 398.902344 82.980469 399.1875 82.773438 C 399.222656 82.542969 399.21875 82.542969 400.421875 81.769531 C 400.421875 81.769531 400.449219 81.507812 400.335938 81.222656 C 399.972656 80.960938 399.972656 80.960938 399.886719 80.246094 C 399.886719 80.246094 399.476562 79.964844 398.871094 79.71875 C 398.296875 79.574219 398.152344 79.539062 396.011719 79.066406 C 396.195312 78.949219 396.371094 78.828125 396.53125 78.699219 C 396.953125 77.375 396.960938 77.375 394.285156 74.257812 C 394.285156 74.257812 393.246094 73.667969 391.515625 73.101562 C 396.761719 72.28125 402.015625 71.46875 407.277344 70.675781 C 410.378906 70.285156 412.558594 69.105469 412.109375 68.066406 C 411.667969 67.019531 408.742188 66.480469 405.65625 66.867188 C 398.0625 67.5 390.683594 68.324219 383.359375 69.269531 C 383.234375 69.101562 383.011719 68.929688 382.65625 68.789062 C 384.269531 66.722656 383.28125 64.886719 381.1875 63.140625 C 381.8125 62.457031 382.097656 61.738281 382.007812 61.003906 C 384.425781 59.21875 385.941406 57.394531 386.570312 55.429688 L 386.859375 53.707031 C 386.144531 52.234375 384.070312 50.847656 380.992188 49.851562 L 380.058594 49.449219 L 380.925781 48.015625 C 378.9375 46.148438 375.980469 44.476562 372.898438 42.828125 C 371.351562 42.003906 369.78125 41.1875 368.285156 40.351562 C 366.789062 39.539062 365.375 38.71875 364.144531 37.855469 L 360.453125 36.0625 C 357.769531 34.628906 353.507812 33.566406 348.582031 33.277344 L 343.375 32.984375 C 342.28125 33.019531 341.195312 33.050781 340.089844 33.085938 C 345.539062 31.054688 348.492188 28.304688 347.378906 25.613281 C 346.417969 23.394531 342.8125 21.632812 337.746094 20.589844 C 332.667969 19.519531 326.222656 19.339844 319.5 20.042969 C 283.710938 22.632812 249.894531 26.371094 214.8125 30.464844 C 211.5625 30.84375 208.355469 31.21875 205.175781 31.589844 C 202.007812 31.929688 198.875 32.261719 195.761719 32.597656 C 189.511719 33.320312 183.417969 33.789062 177.296875 34.324219 C 174.230469 34.609375 171.210938 34.738281 168.160156 34.921875 C 165.121094 35.066406 162.070312 35.214844 159.007812 35.367188 C 155.96875 35.425781 152.910156 35.460938 149.835938 35.476562 C 146.746094 35.492188 143.726562 35.496094 140.34375 35.410156 C 134.011719 35.773438 127.746094 36.171875 121.519531 36.605469 C 115.296875 37.023438 109.09375 37.648438 102.925781 38.210938 C 90.589844 39.300781 78.316406 40.929688 66.007812 42.515625 C 55.648438 44.015625 46.542969 46.148438 37.761719 48.464844 C 28.980469 50.929688 20.527344 53.511719 11.480469 55.886719 C 10.953125 56.023438 10.910156 56.28125 11.199219 56.441406 C 11.632812 56.605469 12.375 56.5625 12.847656 56.425781 C 41.683594 51.554688 70.929688 48.027344 102.027344 47.484375 C 105.59375 47.4375 109.09375 47.449219 112.5625 47.5 C 112.945312 47.570312 113.367188 47.621094 113.820312 47.644531 C 116.972656 47.886719 120.132812 48.132812 123.296875 48.378906 C 122.195312 48.375 121.097656 48.367188 119.996094 48.363281 C 117.816406 48.277344 115.941406 48.847656 115.785156 49.617188 C 115.777344 49.941406 116.085938 50.234375 116.59375 50.484375 C 108.515625 51.242188 100.621094 52.238281 92.757812 53.292969 C 90.410156 53.363281 88.25 53.679688 86.394531 54.09375 C 81.839844 53.878906 77.28125 53.667969 72.710938 53.449219 C 70.425781 53.351562 68.140625 53.253906 65.851562 53.15625 C 63.5625 53.085938 61.269531 53.019531 58.980469 52.949219 L 56.703125 52.78125 C 53.695312 52.699219 50.800781 53.238281 49.382812 54.164062 C 48.925781 54.445312 48.65625 54.734375 48.523438 55.023438 C 38.121094 55.988281 27.644531 57.285156 17.328125 58.574219 C 12.171875 59.1875 7.054688 60.074219 2.011719 60.941406 C -3.03125 61.820312 -7.996094 62.78125 -12.863281 63.839844 C -13.851562 64.054688 -14.355469 64.445312 -14.171875 64.78125 C -14.546875 64.726562 -15.035156 64.746094 -15.46875 64.875 C -17.769531 65.675781 -20.363281 66.28125 -23.101562 66.84375 C -23.695312 67.023438 -24.011719 67.261719 -23.714844 67.417969 C -23.417969 67.625 -22.730469 67.65625 -22.199219 67.507812 C -19.402344 66.910156 -16.667969 66.25 -14.167969 65.449219 C -13.902344 65.355469 -13.730469 65.230469 -13.6875 65.109375 C -13.113281 65.28125 -12.210938 65.332031 -11.332031 65.175781 C -6.28125 64.59375 -1.269531 63.9375 3.722656 63.25 C 6.222656 62.902344 8.714844 62.554688 11.210938 62.203125 C 13.703125 61.84375 16.195312 61.585938 18.691406 61.273438 C 28.667969 60.109375 38.6875 58.867188 48.933594 58.445312 C 38.945312 59.980469 28.722656 61.492188 17.988281 62.984375 C 16.371094 63.21875 14.765625 63.449219 13.175781 63.679688 C 11.585938 63.953125 10.011719 64.226562 8.441406 64.5 C 5.304688 65.058594 2.203125 65.609375 -0.90625 66.164062 C -7.117188 67.269531 -13.339844 68.21875 -19.847656 69.222656 C -20.53125 69.285156 -20.96875 69.535156 -20.882812 69.742188 C -20.78125 69.941406 -20.214844 70.074219 -19.546875 69.960938 C -12.875 69.03125 -6.410156 68.183594 -0.0390625 67.105469 C 6.335938 66.074219 12.621094 64.839844 18.941406 63.902344 C 25.265625 62.910156 31.625 61.949219 38.140625 61.160156 C 44.65625 60.460938 51.328125 59.992188 58.269531 59.808594 C 59.359375 59.78125 60.453125 59.777344 61.53125 59.78125 C 53.003906 61.816406 44.652344 63.796875 36.351562 65.925781 C 10.898438 67.613281 -14.394531 70.515625 -39.214844 74.601562 C -40.4375 74.753906 -41.390625 75.21875 -41.328125 75.636719 C -41.269531 76.050781 -40.207031 76.269531 -38.996094 76.117188 C -31.90625 75.78125 -24.789062 75.4375 -17.660156 75.09375 L -12.316406 74.839844 L -6.957031 74.683594 C -3.390625 74.578125 0.179688 74.464844 3.757812 74.355469 C 2.765625 74.609375 1.785156 74.863281 0.792969 75.117188 L -2.171875 75.523438 L -9.046875 76.027344 L -12.484375 76.289062 L -15.921875 76.636719 C -20.496094 77.132812 -25.078125 77.628906 -29.664062 78.128906 C -33.097656 78.390625 -35.867188 79.566406 -35.960938 80.792969 C -35.925781 81.96875 -33.3125 82.691406 -30.015625 82.492188 C -30.542969 82.605469 -31.066406 82.722656 -31.59375 82.84375 C -32.128906 82.941406 -32.5 83.210938 -32.335938 83.382812 C -32.113281 83.570312 -31.417969 83.644531 -30.898438 83.546875 C -28.988281 83.089844 -27.117188 82.644531 -25.242188 82.195312 C -20.886719 81.921875 -16.53125 81.601562 -12.179688 81.269531 C -7.816406 81.03125 -3.457031 80.761719 0.902344 80.472656 L 13.984375 79.558594 L 27.078125 78.832031 C 22.390625 79.363281 17.691406 79.890625 12.976562 80.425781 C 8.265625 81.023438 3.546875 81.59375 -1.183594 82.132812 C -3.550781 82.394531 -5.921875 82.65625 -8.292969 82.917969 C -9.667969 83.058594 -11.046875 83.210938 -12.417969 83.363281 C -13.894531 83.292969 -15.394531 83.230469 -16.921875 83.191406 C -16.039062 83.320312 -15.144531 83.453125 -14.246094 83.585938 C -14.632812 83.632812 -15.023438 83.675781 -15.414062 83.730469 C -15.820312 83.777344 -16.230469 83.824219 -16.640625 83.875 C -17.570312 83.894531 -18.519531 83.9375 -19.503906 84.039062 C -19.4375 84.09375 -19.363281 84.140625 -19.292969 84.195312 C -20.183594 84.300781 -21.078125 84.410156 -21.972656 84.515625 C -23.394531 84.472656 -24.855469 84.507812 -26.328125 84.597656 C -26.273438 84.574219 -26.203125 84.558594 -26.152344 84.539062 C -25.699219 84.328125 -25.734375 84.097656 -26.222656 83.980469 C -26.640625 83.882812 -27.378906 83.933594 -27.828125 84.136719 C -28.207031 84.3125 -28.171875 84.59375 -27.753906 84.6875 C -27.730469 84.691406 -27.710938 84.691406 -27.691406 84.695312 C -28.324219 84.75 -28.960938 84.816406 -29.59375 84.894531 C -29.640625 84.875 -29.699219 84.855469 -29.769531 84.835938 C -30.183594 84.742188 -30.988281 84.816406 -31.375 84.996094 C -31.503906 85.054688 -31.582031 85.121094 -31.625 85.183594 C -33.097656 85.414062 -34.535156 85.703125 -35.914062 86.046875 C -36.921875 86.144531 -37.929688 86.25 -38.9375 86.371094 C -41.496094 86.683594 -44.054688 86.992188 -46.617188 87.304688 C -51.742188 87.902344 -56.878906 88.460938 -62.03125 88.972656 C -62.632812 89.027344 -63.128906 89.269531 -63.097656 89.5 C -63.058594 89.726562 -62.492188 89.84375 -61.828125 89.761719 C -54.554688 88.949219 -47.292969 88.132812 -40.050781 87.3125 C -41.621094 87.894531 -43.035156 88.550781 -44.179688 89.273438 C -49.378906 92.550781 -47.621094 95.960938 -40.433594 97.238281 C -41 97.382812 -41.285156 97.625 -41.0625 97.804688 C -40.839844 97.988281 -40.21875 98.027344 -39.640625 97.886719 C -39.007812 97.800781 -38.386719 97.710938 -37.757812 97.625 L -37.515625 97.660156 C -41.765625 98.585938 -45.414062 99.949219 -47.375 101.824219 C -48.417969 102.855469 -47.324219 103.882812 -46.980469 104.902344 C -47.0625 105.539062 -46.519531 106.066406 -45.550781 106.449219 C -47.945312 106.902344 -50.339844 107.355469 -52.738281 107.796875 C -55.777344 108.277344 -57.894531 109.519531 -57.429688 110.546875 C -56.972656 111.582031 -54.089844 112.03125 -51.066406 111.554688 C -50.34375 111.472656 -49.632812 111.378906 -48.917969 111.296875 C -48.808594 111.410156 -48.769531 111.574219 -48.671875 112 C -48.671875 112 -48.222656 112.226562 -47.582031 112.390625 C -46.976562 112.460938 -46.816406 112.476562 -44.585938 112.667969 C -44.761719 112.808594 -44.933594 112.960938 -45.082031 113.105469 C -45.382812 114.476562 -45.382812 114.476562 -42.363281 117.234375 C -42.363281 117.234375 -40.753906 117.898438 -38.230469 118.222656 C -35.335938 118.167969 -35.335938 118.167969 -31.996094 118.117188 C -31.996094 118.117188 -31.265625 118.144531 -30.007812 118.152344 C -29.035156 118.546875 -28.820312 118.65625 -28.09375 119.023438 C -28.09375 119.023438 -28.089844 119.023438 -28.078125 119.027344 C -28.707031 119.132812 -29.320312 119.289062 -29.824219 119.496094 C -31.277344 120.097656 -31.417969 120.871094 -30.117188 121.230469 C -31.582031 123.453125 -30.433594 125.1875 -28.207031 126.710938 C -28.777344 127.453125 -29.007812 128.203125 -28.855469 128.921875 C -31.132812 130.933594 -32.480469 132.949219 -32.933594 134.988281 L -33.070312 136.734375 C -32.242188 138.105469 -30.089844 139.226562 -26.976562 139.925781 L -26.03125 140.234375 L -26.769531 141.746094 C -24.152344 143.828125 -20.09375 145.445312 -16.199219 147.113281 C -16.417969 147.121094 -16.632812 147.125 -16.855469 147.132812 C -19.300781 147.257812 -21.800781 147.550781 -24.199219 147.980469 C -28.996094 148.847656 -33.402344 150.269531 -36.277344 152.054688 C -42.046875 155.628906 -39.539062 159.28125 -30.703125 160.226562 L -29.445312 160.382812 C -33.824219 161.351562 -37.585938 162.753906 -39.605469 164.644531 C -40.683594 165.6875 -39.5625 166.707031 -39.210938 167.722656 C -39.417969 169.28125 -35.820312 170.191406 -31.195312 169.746094 C -30.734375 169.703125 -30.289062 169.644531 -29.847656 169.578125 C -29.222656 170.226562 -27.785156 170.761719 -25.945312 171.039062 C -26.507812 171.152344 -27.289062 171.277344 -28.152344 171.332031 C -29.664062 171.542969 -29.664062 171.539062 -33.484375 171.707031 C -33.484375 171.707031 -33.484375 171.707031 -31.589844 172.167969 C -31.589844 172.167969 -31.589844 172.167969 -33.238281 171.890625 C -33.238281 171.890625 -33.238281 171.890625 -32.75 172.617188 C -32.75 172.617188 -32.75 172.617188 -33.566406 171.859375 C -33.566406 171.859375 -33.566406 171.859375 -34.195312 172.578125 C -34.195312 172.578125 -34.203125 172.574219 -37.542969 171.113281 C -37.789062 171.183594 -38.371094 171.347656 -39.828125 171.761719 C -39.828125 171.761719 -40.214844 171.988281 -40.5 172.234375 C -40.511719 172.464844 -40.511719 172.46875 -41.695312 173.402344 C -41.722656 173.398438 -41.753906 173.394531 -41.785156 173.394531 L -45.785156 173.078125 C -47.117188 172.976562 -48.449219 172.742188 -49.78125 172.578125 C -52.441406 172.199219 -55.105469 171.820312 -57.769531 171.441406 C -58.394531 171.339844 -58.949219 171.457031 -58.957031 171.6875 C -58.96875 171.921875 -58.414062 172.175781 -57.71875 172.261719 C -52.191406 173.1875 -46.660156 173.847656 -41.132812 174.28125 C -41.078125 174.394531 -41.042969 174.5625 -40.976562 174.839844 C -40.976562 174.839844 -40.511719 175.066406 -39.851562 175.222656 C -39.234375 175.285156 -39.070312 175.300781 -36.773438 175.472656 C -36.960938 175.617188 -37.132812 175.765625 -37.28125 175.917969 C -37.597656 177.289062 -37.59375 177.289062 -34.5 180.019531 C -34.5 180.019531 -32.851562 180.671875 -30.253906 180.972656 C -27.28125 180.894531 -27.28125 180.894531 -23.84375 180.804688 C -23.84375 180.804688 -23.097656 180.816406 -21.804688 180.828125 C -20.808594 181.214844 -20.582031 181.316406 -19.835938 181.683594 C -19.835938 181.683594 -19.832031 181.683594 -19.824219 181.6875 C -20.472656 181.800781 -21.097656 181.960938 -21.617188 182.167969 C -22.597656 182.570312 -22.984375 183.042969 -22.769531 183.417969 C -23.269531 183.453125 -23.765625 183.484375 -24.257812 183.523438 C -25.632812 183.625 -27.003906 183.722656 -28.371094 183.824219 C -29.742188 183.929688 -31.105469 184.042969 -32.464844 184.152344 L -34.511719 184.316406 L -36.566406 184.402344 C -37.203125 184.433594 -37.554688 184.617188 -37.332031 184.839844 C -37.113281 185.066406 -36.457031 185.230469 -35.828125 185.203125 C -31.351562 185.296875 -26.914062 185.25 -22.507812 185.113281 C -22.964844 186.789062 -21.839844 188.152344 -19.988281 189.378906 C -20.578125 190.128906 -20.816406 190.878906 -20.667969 191.597656 C -20.867188 191.769531 -21.046875 191.945312 -21.234375 192.113281 L -21.710938 192.152344 C -24.976562 192.265625 -28.246094 192.371094 -31.515625 192.484375 C -34.78125 192.65625 -38.101562 192.523438 -41.40625 192.496094 C -44.71875 192.441406 -48.03125 192.457031 -51.386719 192.160156 C -54.800781 191.847656 -57.355469 192.507812 -57.042969 193.632812 C -56.742188 194.757812 -53.625 195.953125 -50.171875 196.269531 C -49.367188 196.363281 -48.558594 196.484375 -47.757812 196.558594 C -46.960938 196.617188 -46.164062 196.675781 -45.371094 196.734375 C -43.777344 196.839844 -42.195312 196.941406 -40.613281 197.042969 C -39.039062 197.132812 -37.464844 197.222656 -35.898438 197.308594 C -34.324219 197.421875 -32.785156 197.355469 -31.238281 197.375 C -29.074219 197.375 -26.917969 197.34375 -24.765625 197.320312 C -24.804688 197.449219 -24.847656 197.578125 -24.878906 197.707031 L -25.027344 199.460938 C -24.175781 200.820312 -21.96875 201.921875 -18.785156 202.597656 L -17.8125 202.894531 L -18.578125 204.421875 C -16.433594 206.066406 -13.34375 207.40625 -10.152344 208.71875 C -6.964844 210.015625 -3.652344 211.398438 -1.097656 212.9375 L 2.683594 214.464844 C 5.441406 215.734375 9.710938 216.429688 14.652344 216.476562 L 18.746094 216.488281 C 17.542969 216.714844 16.332031 216.933594 15.109375 217.160156 C 14.488281 217.226562 14.085938 217.480469 14.167969 217.683594 C 14.265625 217.886719 14.789062 218.015625 15.398438 217.894531 C 17.578125 217.566406 19.722656 217.199219 21.851562 216.820312 C 20.367188 217.539062 19.117188 218.308594 18.148438 219.101562 C 16.949219 219.296875 15.742188 219.496094 14.542969 219.699219 C 11.6875 220.191406 8.828125 220.679688 5.972656 221.171875 C 3.121094 221.671875 0.273438 222.144531 -2.554688 222.816406 C -3.664062 222.992188 -4.53125 223.476562 -4.460938 223.886719 C -4.398438 224.300781 -3.417969 224.503906 -2.3125 224.328125 C 0.925781 223.949219 4.1875 223.839844 7.445312 223.617188 C 10.25 223.445312 13.058594 223.269531 15.867188 223.09375 C 15.898438 223.425781 15.980469 223.75 16.128906 224.074219 C 16.253906 224.332031 16.410156 224.582031 16.605469 224.820312 C 13.171875 225.257812 9.730469 225.699219 6.289062 226.144531 C 3.144531 226.4375 0.632812 227.613281 0.582031 228.878906 C 0.597656 229.199219 0.804688 229.480469 1.144531 229.722656 C -0.195312 229.335938 -1.585938 228.976562 -3.011719 228.714844 C -5.070312 228.332031 -7.1875 228.109375 -9.25 228.046875 C -10.277344 228.015625 -11.289062 228.023438 -12.277344 228.066406 C -13.257812 228.097656 -14.1875 228.117188 -15.085938 228.203125 C -16.882812 228.375 -18.503906 228.714844 -19.835938 229.230469 C -24.382812 231.003906 -24.109375 234.253906 -19.445312 237.105469 C -20.640625 237.265625 -21.835938 237.429688 -23.03125 237.582031 C -23.578125 237.644531 -24.027344 237.902344 -23.984375 238.125 C -23.949219 238.359375 -23.425781 238.460938 -22.820312 238.367188 C -21.308594 238.175781 -19.808594 237.957031 -18.300781 237.753906 C -17.761719 238.03125 -17.195312 238.308594 -16.5625 238.574219 C -16.5625 238.574219 -16.101562 238.78125 -15.527344 239.039062 C -19.378906 238.902344 -22.804688 239.332031 -24.878906 240.679688 C -25.988281 241.425781 -25.222656 242.691406 -25.109375 243.769531 C -25.585938 245.234375 -22.644531 247.015625 -18.554688 247.746094 C -17.4375 247.933594 -16.371094 248.035156 -15.386719 248.046875 C -15.101562 248.125 -14.824219 248.207031 -14.542969 248.289062 C -13.066406 248.648438 -11.558594 248.933594 -10.066406 249.257812 C -7.074219 249.890625 -4.082031 250.53125 -1.1875 251.257812 C -0.273438 251.539062 0.867188 251.453125 1.371094 251.125 C 1.804688 250.800781 1.421875 250.359375 0.46875 250.148438 C -2.855469 249.117188 -6.058594 248.03125 -9.21875 246.933594 C -9.488281 246.996094 -9.757812 247.058594 -10.027344 247.117188 C -9.910156 247 -9.757812 246.898438 -9.597656 246.808594 C -9.886719 246.703125 -10.179688 246.605469 -10.46875 246.5 C -10.230469 246.460938 -9.996094 246.414062 -9.75 246.375 C -9.515625 246.433594 -9.285156 246.492188 -9.054688 246.554688 C -8.636719 246.398438 -8.136719 246.277344 -7.59375 246.179688 C -5.988281 246.503906 -4.378906 246.824219 -2.785156 247.140625 C -1.765625 247.363281 -0.742188 247.574219 0.269531 247.789062 C 1.289062 247.976562 2.304688 248.167969 3.3125 248.355469 C 5.332031 248.746094 7.316406 249.175781 9.265625 249.660156 C 9.578125 249.738281 9.027344 250.390625 9.601562 250.675781 C 9.828125 250.785156 10.066406 250.886719 10.304688 250.992188 L 10.167969 251.011719 C 9.292969 250.835938 8.375 250.671875 7.390625 250.527344 C 3.160156 251.242188 1.5625 251.511719 0.460938 251.699219 C 0.457031 251.695312 0.441406 251.691406 0.4375 251.691406 C 0.4375 251.691406 0.429688 251.691406 0.105469 251.757812 C -0.402344 251.839844 -0.847656 251.882812 -1.492188 251.96875 C -1.492188 251.96875 -1.488281 251.988281 -1.492188 252.027344 C -1.613281 252.046875 -1.753906 252.070312 -1.898438 252.09375 C -2.515625 251.980469 -3.132812 251.878906 -3.761719 251.765625 C -4.460938 251.628906 -5.148438 251.6875 -5.507812 251.859375 C -5.738281 251.667969 -5.992188 251.46875 -6.3125 251.261719 C -9.851562 250.570312 -9.851562 250.570312 -13.480469 249.894531 C -13.480469 249.894531 -13.488281 250.070312 -13.390625 250.324219 C -13.460938 250.324219 -13.804688 250.339844 -14.304688 250.328125 C -14.804688 250.285156 -15.464844 250.210938 -16.160156 250.058594 C -17.523438 249.878906 -17.523438 249.878906 -20.878906 249.085938 C -20.878906 249.085938 -20.878906 249.085938 -19.304688 250.011719 C -19.304688 250.011719 -19.304688 250.011719 -20.695312 249.324219 C -20.695312 249.324219 -20.695312 249.324219 -20.394531 250.15625 C -20.394531 250.15625 -20.394531 250.15625 -20.972656 249.210938 C -20.972656 249.210938 -20.972656 249.210938 -21.648438 249.75 C -21.648438 249.75 -21.660156 249.742188 -24.300781 247.480469 C -24.523438 247.488281 -25.058594 247.507812 -26.402344 247.546875 C -26.402344 247.546875 -26.785156 247.664062 -27.078125 247.835938 C -27.128906 248.054688 -27.128906 248.054688 -28.347656 248.675781 C -28.347656 248.675781 -28.40625 248.925781 -28.324219 249.222656 C -28.007812 249.53125 -28.007812 249.53125 -27.996094 250.253906 C -27.996094 250.253906 -27.636719 250.582031 -27.089844 250.902344 C -26.554688 251.121094 -26.421875 251.179688 -24.433594 251.921875 C -24.621094 252.015625 -24.804688 252.113281 -24.964844 252.222656 C -25.492188 253.480469 -25.507812 253.476562 -23.246094 256.925781 C -23.246094 256.925781 -21.898438 257.976562 -19.621094 258.9375 C -18.855469 259.132812 -18.308594 259.273438 -17.851562 259.394531 C -17.300781 259.878906 -16.144531 260.15625 -14.75 260.164062 C -14.476562 260.222656 -14.171875 260.285156 -13.828125 260.351562 C -13.828125 260.351562 -13.148438 260.535156 -11.976562 260.804688 C -11.128906 261.394531 -10.941406 261.542969 -10.320312 262.058594 C -10.320312 262.058594 -10.3125 262.058594 -10.304688 262.066406 C -10.910156 262.039062 -11.507812 262.066406 -12.007812 262.164062 C -13.464844 262.445312 -13.722656 263.175781 -12.558594 263.804688 C -14.285156 265.679688 -13.488281 267.617188 -11.59375 269.582031 C -12.253906 270.199219 -12.589844 270.878906 -12.558594 271.617188 C -15.058594 273.121094 -16.691406 274.804688 -17.480469 276.652344 L -17.90625 278.320312 C -17.332031 279.902344 -15.40625 281.476562 -12.453125 282.820312 L -11.5625 283.328125 L -12.53125 284.652344 C -8.910156 288.800781 -1.277344 292.734375 3.417969 296.507812 L 6.992188 298.628906 C 8.296875 299.476562 9.996094 300.242188 11.988281 300.90625 C 13.988281 301.59375 16.25 301.992188 18.714844 302.34375 L 23.914062 303.003906 C 25.011719 303.046875 26.097656 303.089844 27.203125 303.136719 C 21.664062 304.777344 18.558594 307.3125 19.546875 310.078125 C 20.402344 312.363281 23.957031 314.375 29.050781 315.777344 C 31.171875 316.308594 33.578125 316.707031 36.148438 316.976562 C 34.011719 317.453125 31.875 317.925781 29.742188 318.402344 C 28.648438 318.582031 27.800781 319.066406 27.875 319.476562 C 27.941406 319.890625 28.914062 320.089844 30.003906 319.914062 C 36.398438 319.25 42.8125 318.585938 49.238281 317.921875 C 52.449219 317.574219 55.664062 317.226562 58.878906 316.882812 C 59.933594 316.773438 60.988281 316.671875 62.042969 316.5625 C 63.945312 316.441406 65.835938 316.320312 67.734375 316.195312 C 67.128906 316.414062 66.523438 316.628906 65.90625 316.84375 L 63.253906 317.425781 C 55.003906 318.636719 46.777344 320.046875 38.527344 321.503906 C 35.429688 321.917969 32.972656 323.226562 32.941406 324.449219 C 33.019531 325.625 35.417969 326.226562 38.402344 325.871094 C 37.921875 326.015625 37.453125 326.15625 36.980469 326.300781 C 36.5 326.425781 36.175781 326.707031 36.332031 326.871094 C 36.542969 327.054688 37.175781 327.09375 37.644531 326.96875 C 39.355469 326.425781 41.027344 325.894531 42.710938 325.359375 C 46.648438 324.878906 50.582031 324.363281 54.511719 323.820312 L 66.308594 322.183594 C 74.175781 321.089844 82.039062 319.910156 89.902344 318.707031 C 81.5 320.566406 73.03125 322.324219 64.511719 323.964844 C 55.988281 325.605469 47.433594 327.292969 38.824219 328.746094 C 39.15625 328.558594 39.171875 328.300781 38.722656 328.207031 C 38.34375 328.128906 37.613281 328.242188 37.273438 328.4375 C 36.882812 328.664062 36.976562 328.90625 37.367188 328.984375 C 37.382812 328.988281 37.386719 328.988281 37.40625 328.992188 C 28.164062 330.5625 18.875 331.976562 9.542969 333.210938 C 8.996094 333.273438 8.550781 333.527344 8.585938 333.753906 C 8.625 333.988281 9.148438 334.089844 9.75 333.996094 C 25.207031 331.949219 40.546875 329.40625 55.722656 326.46875 C 59.519531 325.726562 63.308594 324.992188 67.089844 324.261719 C 70.871094 323.523438 74.640625 322.761719 78.398438 321.976562 C 85.917969 320.410156 93.394531 318.757812 100.816406 317.03125 C 102.449219 316.78125 104.082031 316.535156 105.726562 316.28125 C 105.726562 316.289062 105.726562 316.292969 105.730469 316.300781 C 106.332031 317.132812 107.492188 317.78125 109.03125 318.230469 C 98.460938 320.089844 87.960938 322.007812 77.429688 324.011719 C 68.605469 325.160156 59.773438 326.253906 50.957031 327.5625 C 49.683594 327.738281 48.660156 328.277344 48.6875 328.8125 C 48.699219 329.304688 49.792969 329.527344 51.128906 329.367188 L 57.617188 328.464844 C 55.90625 329.355469 54.832031 330.40625 54.816406 331.410156 C 54.796875 332.378906 55.78125 333.109375 57.351562 333.558594 C 47.921875 335.886719 38.605469 338.292969 29.546875 341.003906 C 29.015625 341.15625 28.75 341.40625 28.964844 341.589844 C 29.183594 341.765625 29.746094 341.792969 30.273438 341.640625 C 36.933594 340.351562 43.539062 339.003906 50.128906 337.644531 C 53.429688 336.960938 56.71875 336.28125 60.007812 335.597656 C 63.300781 334.925781 66.609375 334.316406 69.910156 333.683594 C 80.519531 333.402344 90.90625 333.246094 102.285156 332.136719 C 110.5625 331.296875 118.5625 330.066406 126.417969 328.640625 C 134.273438 327.207031 141.972656 325.554688 149.675781 323.902344 C 155.285156 323.46875 160.863281 322.960938 166.398438 322.371094 C 165.664062 322.925781 165.253906 323.527344 165.3125 324.117188 C 165.328125 324.261719 165.398438 324.394531 165.476562 324.53125 C 160.613281 325.117188 155.722656 325.707031 150.75 326.300781 C 139.230469 327.710938 127.914062 329.375 116.734375 331.226562 C 105.570312 333.105469 94.570312 335.203125 83.632812 337.398438 C 61.730469 341.679688 40.285156 346.90625 18.59375 351.8125 C 15.808594 352.359375 13.902344 353.648438 14.359375 354.664062 C 14.804688 355.6875 17.476562 356.074219 20.25 355.53125 C 30.726562 353.957031 40.742188 351.984375 50.773438 349.773438 C 60.808594 347.492188 70.882812 345.207031 81.425781 342.820312 C 88.941406 341.121094 96.007812 339.566406 103.089844 338.0625 C 110.164062 336.550781 117.265625 335.105469 124.867188 333.640625 C 142.652344 330.191406 159.292969 328.242188 176.863281 325.867188 C 178.605469 325.804688 180.347656 325.6875 182.085938 325.382812 C 183.847656 325.082031 185.605469 324.78125 187.351562 324.480469 C 194.230469 323.621094 201.0625 322.90625 207.855469 322.265625 C 214.65625 321.65625 221.421875 321.046875 228.167969 320.4375 C 220.175781 321.9375 212.195312 323.441406 204.242188 324.9375 C 196.300781 326.484375 188.398438 328.121094 180.574219 329.929688 C 179.441406 330.144531 178.730469 330.652344 178.886719 331.046875 C 179.132812 331.4375 180.179688 331.597656 181.3125 331.382812 C 192.285156 329.433594 203.28125 327.617188 214.296875 325.855469 C 225.324219 324.039062 236.359375 322.222656 247.390625 320.40625 C 250.605469 321.816406 255.457031 322.601562 260.949219 322.84375 C 266.433594 323.070312 272.542969 322.835938 278.269531 321.929688 C 282.496094 321.3125 286.363281 320.265625 290.238281 319.023438 C 288.378906 319.164062 286.566406 319.308594 284.710938 319.453125 C 290.128906 318.445312 294.652344 316.738281 299.113281 315.007812 C 299.519531 314.992188 299.921875 314.980469 300.351562 314.9375 C 305.789062 315.097656 311.605469 314.570312 317.507812 313.882812 C 320.460938 313.53125 323.433594 313.175781 326.394531 312.773438 C 329.359375 312.34375 332.304688 311.9375 335.207031 311.625 C 334.902344 311.195312 334.542969 310.785156 334.242188 310.359375 C 336.410156 310.328125 337.765625 310.945312 340.125 310.769531 C 339.421875 310.542969 338.773438 310.324219 338.070312 310.09375 C 338.121094 310.089844 338.171875 310.085938 338.214844 310.082031 C 340.800781 310.386719 343.847656 310.164062 346.964844 309.617188 C 354.078125 310.457031 362.542969 310.164062 371.347656 309.15625 C 371.65625 309.125 371.96875 309.082031 372.273438 309.042969 C 373.523438 309.394531 375.339844 309.453125 377.410156 309.148438 C 378.304688 309.171875 379.332031 309.078125 379.996094 309.183594 C 385.957031 310.246094 393.074219 310.324219 400.851562 309.839844 C 399.324219 309.734375 397.730469 309.621094 396.199219 309.507812 C 398.449219 309.390625 400.671875 309.292969 403.125 308.78125 C 402.828125 308.570312 402.453125 308.367188 402.15625 308.152344 C 410.011719 308.472656 420.277344 305.511719 425.03125 301.566406 C 429.808594 297.605469 427.308594 294.148438 419.472656 293.828125 L 418.351562 293.761719 C 422.121094 292.492188 425.308594 290.84375 426.933594 288.816406 C 427.796875 287.707031 426.722656 286.769531 426.335938 285.78125 C 426.386719 284.21875 423.152344 283.566406 419.132812 284.328125 C 418.035156 284.542969 417 284.835938 416.066406 285.179688 C 411.359375 285.632812 406.570312 286.222656 401.980469 286.523438 C 401.066406 286.550781 400.003906 286.933594 399.589844 287.386719 C 399.242188 287.816406 399.691406 288.140625 400.632812 288.097656 C 403.984375 288.09375 407.246094 288.144531 410.492188 288.222656 C 410.738281 288.078125 410.976562 287.9375 411.21875 287.796875 C 411.132812 287.945312 411.011719 288.089844 410.875 288.230469 C 411.179688 288.238281 411.476562 288.242188 411.777344 288.253906 C 411.558594 288.367188 411.34375 288.488281 411.121094 288.597656 C 410.882812 288.617188 410.65625 288.628906 410.417969 288.644531 C 410.050781 288.925781 409.597656 289.195312 409.097656 289.457031 C 403.398438 290.160156 397.753906 290.785156 392.378906 290.925781 C 392.066406 290.925781 392.476562 290.140625 391.878906 290.015625 C 391.578125 289.957031 391.273438 289.90625 390.953125 289.863281 C 391.910156 289.804688 392.921875 289.707031 394.003906 289.570312 C 397.867188 287.746094 399.332031 287.058594 400.339844 286.582031 C 400.347656 286.582031 400.359375 286.589844 400.359375 286.589844 C 400.359375 286.589844 400.371094 286.582031 400.660156 286.429688 C 401.125 286.214844 401.535156 286.019531 402.125 285.746094 C 402.125 285.746094 402.117188 285.71875 402.113281 285.6875 C 402.226562 285.625 402.351562 285.5625 402.476562 285.496094 C 403.085938 285.410156 403.691406 285.324219 404.300781 285.238281 C 404.988281 285.152344 405.625 284.886719 405.921875 284.605469 C 406.183594 284.722656 406.460938 284.835938 406.804688 284.933594 C 410.285156 284.519531 410.285156 284.519531 413.851562 284.050781 C 413.851562 284.050781 413.816406 283.878906 413.664062 283.664062 C 413.800781 283.617188 414.945312 283.175781 416.332031 282.972656 C 417.644531 282.65625 417.644531 282.65625 420.976562 282.222656 C 420.976562 282.222656 420.976562 282.222656 419.28125 281.894531 C 419.28125 281.894531 419.28125 281.894531 420.75 282.058594 C 420.75 282.058594 420.75 282.058594 420.261719 281.371094 C 420.261719 281.371094 420.261719 281.371094 421.035156 282.066406 C 421.035156 282.066406 421.035156 282.066406 421.535156 281.3125 C 421.535156 281.3125 421.542969 281.316406 424.59375 282.527344 C 424.800781 282.441406 425.296875 282.242188 426.542969 281.722656 C 426.542969 281.722656 426.871094 281.476562 427.09375 281.210938 C 427.085938 280.980469 427.085938 280.980469 428.050781 279.960938 C 428.050781 279.960938 428.035156 279.699219 427.882812 279.449219 C 427.503906 279.273438 427.503906 279.273438 427.300781 278.585938 C 427.300781 278.585938 426.878906 278.394531 426.285156 278.289062 C 425.734375 278.261719 425.59375 278.257812 423.5625 278.25 C 423.710938 278.097656 423.847656 277.9375 423.972656 277.777344 C 424.136719 276.390625 424.136719 276.390625 421.195312 273.886719 C 421.195312 273.886719 419.695312 273.359375 417.394531 273.242188 C 414.789062 273.527344 414.789062 273.527344 411.78125 273.855469 C 411.78125 273.855469 411.121094 273.878906 409.984375 273.976562 C 409.078125 273.660156 408.875 273.570312 408.191406 273.261719 C 408.191406 273.261719 408.1875 273.265625 408.175781 273.261719 C 408.734375 273.105469 409.273438 272.898438 409.710938 272.652344 C 410.976562 271.9375 411.042969 271.160156 409.847656 270.902344 C 410.992188 268.570312 409.820312 266.945312 407.695312 265.605469 C 408.152344 264.8125 408.300781 264.058594 408.109375 263.351562 C 410.003906 261.164062 411.058594 259.046875 411.3125 256.988281 L 411.300781 255.234375 C 410.445312 253.9375 408.414062 252.996094 405.566406 252.550781 L 404.691406 252.320312 L 405.238281 250.75 C 403.570312 249.523438 401.351562 248.546875 398.988281 247.636719 C 398.0625 247.054688 396.785156 246.566406 395.1875 246.214844 C 394.425781 245.929688 393.671875 245.640625 392.933594 245.34375 C 394.46875 244.921875 395.890625 244.433594 397.140625 243.867188 C 405.273438 243.324219 413.429688 242.875 421.613281 242.5625 C 422.207031 242.546875 422.703125 242.332031 422.683594 242.101562 C 422.664062 241.871094 422.109375 241.714844 421.457031 241.761719 C 413.914062 242.050781 406.390625 242.464844 398.890625 242.953125 C 399.652344 242.488281 400.308594 241.980469 400.828125 241.4375 C 401.78125 240.402344 400.738281 239.378906 400.40625 238.367188 C 400.5625 236.808594 397.296875 235.886719 393.140625 236.308594 C 392.007812 236.425781 390.933594 236.628906 389.957031 236.902344 C 385.371094 236.949219 380.710938 237.109375 376.234375 237.046875 C 379.160156 236.609375 382.082031 236.164062 384.992188 235.707031 C 385.679688 235.675781 386.503906 235.636719 387.773438 235.582031 C 387.773438 235.582031 387.75 235.449219 387.660156 235.273438 C 389.203125 235.019531 390.746094 234.765625 392.285156 234.503906 C 392.871094 234.464844 393.707031 234.429688 395.164062 234.363281 C 395.164062 234.363281 395.15625 234.359375 394.355469 234.136719 C 394.421875 234.128906 394.488281 234.117188 394.550781 234.105469 C 394.671875 234.125 394.792969 234.148438 394.941406 234.179688 C 394.941406 234.179688 394.9375 234.175781 394.859375 234.050781 C 394.917969 234.039062 394.980469 234.027344 395.039062 234.015625 C 395.101562 234.074219 395.164062 234.136719 395.234375 234.210938 C 395.234375 234.210938 395.238281 234.207031 395.445312 233.941406 C 395.753906 233.886719 396.054688 233.835938 396.363281 233.777344 C 396.789062 233.984375 397.53125 234.339844 398.832031 234.972656 C 399.050781 234.90625 399.570312 234.746094 400.871094 234.332031 C 400.871094 234.332031 401.226562 234.113281 401.46875 233.863281 C 401.480469 233.636719 401.480469 233.636719 402.527344 232.703125 C 402.527344 232.703125 402.523438 232.4375 402.382812 232.175781 C 402.003906 231.964844 402.003906 231.964844 401.84375 231.265625 C 401.84375 231.265625 401.425781 231.042969 400.828125 230.878906 C 400.265625 230.8125 400.121094 230.796875 398.050781 230.617188 C 398.21875 230.476562 398.367188 230.328125 398.503906 230.179688 C 398.757812 228.808594 398.753906 228.8125 395.917969 226.070312 C 395.917969 226.070312 395.390625 225.835938 394.488281 225.585938 C 400.757812 224.785156 407.03125 223.988281 413.320312 223.199219 C 416.363281 222.902344 418.535156 221.785156 418.121094 220.734375 C 417.714844 219.671875 414.863281 219.046875 411.824219 219.34375 C 402.625 219.855469 393.722656 220.652344 384.871094 221.625 C 385.761719 219.628906 384.703125 218.050781 382.808594 216.648438 C 383.328125 215.898438 383.527344 215.15625 383.386719 214.4375 C 385.441406 212.414062 386.640625 210.394531 387.03125 208.359375 L 387.136719 206.609375 C 386.359375 205.242188 384.390625 204.125 381.566406 203.4375 L 380.703125 203.128906 L 381.359375 201.613281 C 379.449219 199.953125 376.710938 198.585938 373.886719 197.257812 C 371.070312 195.933594 368.140625 194.457031 365.886719 192.871094 L 362.554688 191.261719 C 360.125 189.941406 356.378906 189.152344 352.054688 189.003906 L 349.972656 188.949219 C 353.394531 187.859375 356.851562 186.753906 360.394531 185.699219 C 365.90625 186.84375 372.152344 187.539062 378.882812 187.964844 C 377.183594 187.652344 375.410156 187.332031 373.714844 187.023438 C 376.242188 187.175781 378.730469 187.457031 381.539062 187.132812 C 381.226562 186.890625 380.828125 186.65625 380.519531 186.410156 C 389.304688 187.460938 401.152344 185.453125 406.863281 181.953125 C 412.601562 178.4375 410.105469 174.765625 401.355469 173.71875 L 400.105469 173.546875 C 404.445312 172.628906 408.179688 171.28125 410.179688 169.40625 C 411.246094 168.375 410.132812 167.351562 409.785156 166.328125 C 409.792969 166.277344 409.785156 166.234375 409.785156 166.183594 L 413.21875 165.554688 C 414.472656 165.394531 415.457031 164.914062 415.390625 164.503906 C 415.332031 164.089844 414.238281 163.882812 412.988281 164.039062 C 411.082031 164.199219 409.175781 164.332031 407.261719 164.453125 C 405.855469 164.140625 403.972656 164.03125 401.867188 164.210938 C 400.632812 164.316406 399.457031 164.507812 398.386719 164.765625 C 393.082031 164.777344 387.667969 164.925781 382.511719 164.800781 C 381.484375 164.742188 380.265625 165.023438 379.753906 165.433594 C 379.425781 165.742188 379.628906 166.027344 380.214844 166.167969 C 380.144531 166.171875 380.074219 166.175781 380.003906 166.179688 C 378.335938 166.265625 376.667969 166.355469 374.996094 166.449219 C 376.367188 166.054688 377.414062 165.757812 378.238281 165.496094 C 378.824219 165.304688 379.296875 165.152344 379.707031 165.019531 C 382.871094 164.683594 386.035156 164.300781 389.207031 163.949219 C 390.308594 163.820312 391.417969 163.683594 392.523438 163.546875 C 393.371094 163.523438 394.347656 163.492188 395.996094 163.4375 C 395.996094 163.4375 395.980469 163.3125 395.890625 163.140625 C 398.152344 162.871094 400.40625 162.601562 402.667969 162.328125 C 403.085938 162.3125 403.5625 162.292969 404.128906 162.277344 C 404.128906 162.277344 404.128906 162.277344 403.8125 162.195312 C 404.519531 162.121094 405.1875 162.007812 405.808594 161.863281 C 406.300781 162.082031 407.03125 162.417969 408.136719 162.921875 C 408.378906 162.855469 408.949219 162.691406 410.390625 162.296875 C 410.390625 162.296875 410.78125 162.078125 411.054688 161.835938 C 411.066406 161.605469 411.066406 161.605469 412.238281 160.679688 C 412.238281 160.679688 412.242188 160.417969 412.089844 160.15625 C 411.683594 159.9375 411.683594 159.9375 411.523438 159.238281 C 411.523438 159.238281 411.066406 159.007812 410.414062 158.839844 C 410.082031 158.804688 409.878906 158.78125 409.398438 158.734375 C 409.0625 158.472656 408.542969 158.261719 407.886719 158.105469 C 408.164062 156.875 408.167969 156.746094 405.894531 154.671875 C 410.859375 154.046875 415.828125 153.421875 420.808594 152.792969 C 426.101562 152.148438 431.414062 151.550781 436.726562 150.992188 C 437.355469 150.941406 437.863281 150.6875 437.832031 150.460938 C 437.796875 150.230469 437.214844 150.117188 436.523438 150.203125 " fill-opacity="1" fill-rule="nonzero"/></g><path fill="#ff3131" d="M 175.96875 331.472656 C 158.25 333.117188 140.554688 334.933594 122.835938 336.9375 C 122.246094 337.003906 121.761719 337.230469 121.753906 337.460938 C 121.742188 337.65625 122.226562 337.792969 122.769531 337.71875 C 140.5 335.75 158.109375 333.949219 175.824219 332.304688 C 176.421875 332.230469 176.894531 332.003906 176.953125 331.785156 C 176.960938 331.554688 176.527344 331.421875 175.96875 331.472656 " fill-opacity="1" fill-rule="nonzero"/><path fill="#ff3131" d="M 41.992188 327.738281 C 42.394531 327.511719 42.355469 327.28125 41.902344 327.191406 C 41.515625 327.105469 40.847656 327.191406 40.453125 327.414062 C 40.117188 327.613281 40.160156 327.886719 40.546875 327.960938 C 41 328.058594 41.65625 327.929688 41.992188 327.738281 " fill-opacity="1" fill-rule="nonzero"/><g fill="#000000" fill-opacity="1"><g transform="translate(107.378237, 258.662241)"><g><path d="M 114.75 -206.9375 C 123.289062 -206.9375 130.785156 -205.828125 137.234375 -203.609375 C 143.691406 -201.390625 149.097656 -198.328125 153.453125 -194.421875 C 157.804688 -190.523438 161.070312 -185.96875 163.25 -180.75 C 165.425781 -175.53125 166.515625 -169.960938 166.515625 -164.046875 C 166.515625 -157.554688 165.425781 -151.332031 163.25 -145.375 C 161.070312 -139.414062 158.070312 -133.765625 154.25 -128.421875 C 150.425781 -123.085938 145.925781 -118.078125 140.75 -113.390625 C 135.570312 -108.710938 130.023438 -104.441406 124.109375 -100.578125 C 118.191406 -96.710938 112.050781 -93.257812 105.6875 -90.21875 C 99.320312 -87.175781 93.015625 -84.628906 86.765625 -82.578125 C 91.203125 -78.628906 95.226562 -74.046875 98.84375 -68.828125 C 102.457031 -63.617188 105.90625 -58.078125 109.1875 -52.203125 C 112.476562 -46.328125 115.726562 -40.304688 118.9375 -34.140625 C 122.144531 -27.972656 125.515625 -21.992188 129.046875 -16.203125 C 132.578125 -10.410156 136.414062 -4.925781 140.5625 0.25 C 144.71875 5.425781 149.441406 9.960938 154.734375 13.859375 C 160.035156 17.765625 165.972656 20.847656 172.546875 23.109375 C 179.128906 25.367188 186.648438 26.5 195.109375 26.5 L 195.609375 31.546875 C 194.535156 31.796875 193.300781 32.003906 191.90625 32.171875 C 190.75 32.335938 189.304688 32.476562 187.578125 32.59375 C 185.859375 32.71875 183.890625 32.78125 181.671875 32.78125 C 170.992188 32.78125 161.664062 31.566406 153.6875 29.140625 C 145.71875 26.722656 138.796875 23.4375 132.921875 19.28125 C 127.046875 15.132812 122.054688 10.328125 117.953125 4.859375 C 113.847656 -0.597656 110.253906 -6.382812 107.171875 -12.5 C 104.085938 -18.625 101.394531 -24.867188 99.09375 -31.234375 C 96.789062 -37.609375 94.507812 -43.773438 92.25 -49.734375 C 89.988281 -55.691406 87.601562 -61.238281 85.09375 -66.375 C 82.59375 -71.507812 79.617188 -75.882812 76.171875 -79.5 C 74.523438 -79.082031 72.898438 -78.75 71.296875 -78.5 C 69.691406 -78.257812 68.113281 -78.015625 66.5625 -77.765625 C 66.476562 -71.847656 66.375 -66.734375 66.25 -62.421875 C 66.125 -58.109375 65.976562 -54.328125 65.8125 -51.078125 C 65.65625 -47.835938 65.453125 -44.984375 65.203125 -42.515625 C 64.953125 -40.054688 64.664062 -37.675781 64.34375 -35.375 C 63.4375 -28.96875 62.117188 -23.523438 60.390625 -19.046875 C 58.671875 -14.566406 56.578125 -10.910156 54.109375 -8.078125 C 51.640625 -5.242188 48.820312 -3.1875 45.65625 -1.90625 C 42.5 -0.632812 39.03125 0 35.25 0 C 29.90625 0 24.910156 -1.5625 20.265625 -4.6875 C 15.628906 -7.8125 11.625 -12.453125 8.25 -18.609375 C 4.882812 -24.773438 2.234375 -32.414062 0.296875 -41.53125 C -1.628906 -50.65625 -2.59375 -61.21875 -2.59375 -73.21875 C -2.59375 -85.78125 -1.238281 -97.832031 1.46875 -109.375 C 4.1875 -120.925781 8.03125 -131.648438 13 -141.546875 C 17.96875 -151.453125 23.984375 -160.429688 31.046875 -168.484375 C 38.117188 -176.535156 45.988281 -183.414062 54.65625 -189.125 C 63.332031 -194.84375 72.742188 -199.238281 82.890625 -202.3125 C 93.035156 -205.394531 103.65625 -206.9375 114.75 -206.9375 Z M 39.078125 -87.140625 C 39.078125 -89.273438 39.914062 -91.101562 41.59375 -92.625 C 43.28125 -94.144531 45.5625 -95.148438 48.4375 -95.640625 C 48.269531 -103.691406 48.0625 -111.046875 47.8125 -117.703125 C 47.570312 -124.359375 47.367188 -130.113281 47.203125 -134.96875 C 46.960938 -140.632812 46.757812 -145.726562 46.59375 -150.25 C 47.164062 -150.738281 47.820312 -151.148438 48.5625 -151.484375 C 49.21875 -151.804688 50 -152.085938 50.90625 -152.328125 C 51.8125 -152.578125 52.921875 -152.703125 54.234375 -152.703125 C 58.015625 -152.703125 61.050781 -152.023438 63.34375 -150.671875 C 65.644531 -149.316406 66.796875 -147.039062 66.796875 -143.84375 C 66.796875 -134.144531 66.796875 -125.164062 66.796875 -116.90625 C 66.796875 -108.644531 66.71875 -100.898438 66.5625 -93.671875 C 69.1875 -92.929688 71.707031 -92.003906 74.125 -90.890625 C 76.550781 -89.785156 78.835938 -88.535156 80.984375 -87.140625 C 88.535156 -89.191406 96.128906 -92.148438 103.765625 -96.015625 C 111.410156 -99.878906 118.296875 -104.785156 124.421875 -110.734375 C 130.546875 -116.691406 135.515625 -123.757812 139.328125 -131.9375 C 143.148438 -140.113281 145.0625 -149.546875 145.0625 -160.234375 C 145.0625 -167.210938 144.097656 -173.164062 142.171875 -178.09375 C 140.242188 -183.03125 137.632812 -187.078125 134.34375 -190.234375 C 131.0625 -193.398438 127.179688 -195.722656 122.703125 -197.203125 C 118.222656 -198.679688 113.476562 -199.421875 108.46875 -199.421875 C 100.082031 -199.421875 91.84375 -198.207031 83.75 -195.78125 C 75.65625 -193.363281 68.015625 -189.6875 60.828125 -184.75 C 53.640625 -179.820312 47.023438 -173.578125 40.984375 -166.015625 C 34.941406 -158.460938 29.722656 -149.550781 25.328125 -139.28125 C 20.929688 -129.007812 17.5 -117.335938 15.03125 -104.265625 C 12.570312 -91.203125 11.34375 -76.660156 11.34375 -60.640625 C 11.34375 -53.648438 11.691406 -46.890625 12.390625 -40.359375 C 13.085938 -33.828125 14.253906 -28.035156 15.890625 -22.984375 C 17.535156 -17.929688 19.734375 -13.882812 22.484375 -10.84375 C 25.242188 -7.800781 28.675781 -6.28125 32.78125 -6.28125 C 35 -6.28125 37.09375 -6.734375 39.0625 -7.640625 C 41.039062 -8.546875 42.769531 -10.414062 44.25 -13.25 C 45.726562 -16.082031 46.914062 -20.148438 47.8125 -25.453125 C 48.71875 -30.753906 49.171875 -37.84375 49.171875 -46.71875 C 49.171875 -49.914062 49.171875 -52.765625 49.171875 -55.265625 C 49.171875 -57.773438 49.171875 -60.203125 49.171875 -62.546875 C 49.171875 -64.890625 49.148438 -67.253906 49.109375 -69.640625 C 49.066406 -72.023438 49.007812 -74.65625 48.9375 -77.53125 C 45.8125 -78.269531 43.382812 -79.457031 41.65625 -81.09375 C 39.9375 -82.738281 39.078125 -84.753906 39.078125 -87.140625 Z M 45.359375 -87.140625 C 45.359375 -86.316406 45.5 -85.617188 45.78125 -85.046875 C 46.070312 -84.472656 47.039062 -83.976562 48.6875 -83.5625 L 48.6875 -89.359375 C 46.46875 -88.867188 45.359375 -88.128906 45.359375 -87.140625 Z M 66.5625 -84.0625 C 67.21875 -84.0625 67.851562 -84.101562 68.46875 -84.1875 C 69.082031 -84.269531 69.71875 -84.390625 70.375 -84.546875 C 69.71875 -84.960938 69.082031 -85.332031 68.46875 -85.65625 C 67.851562 -85.988281 67.21875 -86.28125 66.5625 -86.53125 Z M 66.5625 -84.0625 "/></g></g></g></svg>